<mxfile host="app.diagrams.net" modified="2021-04-14T15:52:49.839Z" agent="5.0 (Windows NT 10.0; Win64; x64) AppleWebKit/537.36 (KHTML, like Gecko) Chrome/89.0.4389.128 Safari/537.36" etag="-gflXQIQ4kI3_SgwM6jl" version="14.6.0" type="github">
  <diagram id="PS3UIY--bPpSg8Buevzv" name="Page-1">
    <mxGraphModel dx="1422" dy="794" grid="1" gridSize="10" guides="1" tooltips="1" connect="1" arrows="1" fold="1" page="1" pageScale="1" pageWidth="850" pageHeight="1100" math="0" shadow="0">
      <root>
        <mxCell id="0" />
        <mxCell id="1" parent="0" />
        <mxCell id="IExzLnxYv5k1h0c-7KHn-1" value="&lt;div style=&quot;&quot;&gt;&lt;span style=&quot;font-size: 15px&quot;&gt;1.username&lt;/span&gt;&lt;/div&gt;&lt;font style=&quot;font-size: 15px&quot;&gt;&lt;div style=&quot;&quot;&gt;&lt;span&gt;2. hashed password&lt;/span&gt;&lt;/div&gt;&lt;div style=&quot;&quot;&gt;&lt;span&gt;3. private key, encrypted with AES-256-cbc ( by masterkey)&lt;/span&gt;&lt;/div&gt;&lt;div style=&quot;&quot;&gt;&lt;span&gt;4.publickey&lt;/span&gt;&lt;/div&gt;&lt;/font&gt;" style="rounded=1;whiteSpace=wrap;html=1;align=center;" vertex="1" parent="1">
          <mxGeometry x="290" y="530" width="210" height="110" as="geometry" />
        </mxCell>
        <mxCell id="IExzLnxYv5k1h0c-7KHn-3" value="client" style="rounded=1;whiteSpace=wrap;html=1;align=center;" vertex="1" parent="1">
          <mxGeometry x="40" y="80" width="160" height="80" as="geometry" />
        </mxCell>
        <mxCell id="IExzLnxYv5k1h0c-7KHn-4" value="server" style="rounded=1;whiteSpace=wrap;html=1;align=center;" vertex="1" parent="1">
          <mxGeometry x="560" y="80" width="160" height="80" as="geometry" />
        </mxCell>
        <mxCell id="IExzLnxYv5k1h0c-7KHn-6" value="client" style="rounded=0;whiteSpace=wrap;html=1;align=center;" vertex="1" parent="1">
          <mxGeometry x="50" y="260" width="120" height="60" as="geometry" />
        </mxCell>
        <mxCell id="IExzLnxYv5k1h0c-7KHn-7" value="server" style="rounded=0;whiteSpace=wrap;html=1;align=center;" vertex="1" parent="1">
          <mxGeometry x="640" y="350" width="120" height="60" as="geometry" />
        </mxCell>
        <mxCell id="IExzLnxYv5k1h0c-7KHn-8" value="client" style="rounded=0;whiteSpace=wrap;html=1;align=center;" vertex="1" parent="1">
          <mxGeometry x="40" y="420" width="120" height="60" as="geometry" />
        </mxCell>
        <mxCell id="IExzLnxYv5k1h0c-7KHn-24" style="edgeStyle=orthogonalEdgeStyle;rounded=0;orthogonalLoop=1;jettySize=auto;html=1;exitX=1;exitY=0.5;exitDx=0;exitDy=0;" edge="1" parent="1" source="IExzLnxYv5k1h0c-7KHn-9" target="IExzLnxYv5k1h0c-7KHn-25">
          <mxGeometry relative="1" as="geometry">
            <mxPoint x="960" y="740" as="targetPoint" />
          </mxGeometry>
        </mxCell>
        <mxCell id="IExzLnxYv5k1h0c-7KHn-9" value="server" style="rounded=0;whiteSpace=wrap;html=1;align=center;" vertex="1" parent="1">
          <mxGeometry x="670" y="710" width="120" height="60" as="geometry" />
        </mxCell>
        <mxCell id="IExzLnxYv5k1h0c-7KHn-10" value="client" style="rounded=0;whiteSpace=wrap;html=1;align=center;" vertex="1" parent="1">
          <mxGeometry x="60" y="780" width="120" height="60" as="geometry" />
        </mxCell>
        <mxCell id="IExzLnxYv5k1h0c-7KHn-12" value="" style="endArrow=classic;html=1;exitX=1;exitY=0.5;exitDx=0;exitDy=0;entryX=0;entryY=0.5;entryDx=0;entryDy=0;" edge="1" parent="1" source="IExzLnxYv5k1h0c-7KHn-6" target="IExzLnxYv5k1h0c-7KHn-7">
          <mxGeometry width="50" height="50" relative="1" as="geometry">
            <mxPoint x="400" y="520" as="sourcePoint" />
            <mxPoint x="570" y="280" as="targetPoint" />
          </mxGeometry>
        </mxCell>
        <mxCell id="IExzLnxYv5k1h0c-7KHn-14" value="send publickey, ask for server&#39;s publickey&lt;br&gt;" style="text;html=1;strokeColor=none;fillColor=none;align=center;verticalAlign=middle;whiteSpace=wrap;rounded=0;rotation=15;" vertex="1" parent="1">
          <mxGeometry x="290" y="290" width="190" height="40" as="geometry" />
        </mxCell>
        <mxCell id="IExzLnxYv5k1h0c-7KHn-15" value="" style="endArrow=classic;html=1;entryX=1;entryY=0.5;entryDx=0;entryDy=0;exitX=0;exitY=0.5;exitDx=0;exitDy=0;" edge="1" parent="1" source="IExzLnxYv5k1h0c-7KHn-7" target="IExzLnxYv5k1h0c-7KHn-8">
          <mxGeometry width="50" height="50" relative="1" as="geometry">
            <mxPoint x="400" y="510" as="sourcePoint" />
            <mxPoint x="450" y="460" as="targetPoint" />
          </mxGeometry>
        </mxCell>
        <mxCell id="IExzLnxYv5k1h0c-7KHn-16" value="encrypt server&#39;s publickey using client&#39;s publickey&amp;nbsp;" style="text;html=1;strokeColor=none;fillColor=none;align=center;verticalAlign=middle;whiteSpace=wrap;rounded=0;rotation=-6;" vertex="1" parent="1">
          <mxGeometry x="250" y="390" width="170" height="20" as="geometry" />
        </mxCell>
        <mxCell id="IExzLnxYv5k1h0c-7KHn-17" value="" style="endArrow=classic;html=1;entryX=0;entryY=0.5;entryDx=0;entryDy=0;exitX=1;exitY=0.5;exitDx=0;exitDy=0;" edge="1" parent="1" source="IExzLnxYv5k1h0c-7KHn-1" target="IExzLnxYv5k1h0c-7KHn-9">
          <mxGeometry width="50" height="50" relative="1" as="geometry">
            <mxPoint x="400" y="480" as="sourcePoint" />
            <mxPoint x="450" y="430" as="targetPoint" />
          </mxGeometry>
        </mxCell>
        <mxCell id="IExzLnxYv5k1h0c-7KHn-18" value="" style="endArrow=classic;html=1;entryX=0;entryY=0.5;entryDx=0;entryDy=0;exitX=1.013;exitY=0.646;exitDx=0;exitDy=0;exitPerimeter=0;" edge="1" parent="1" source="IExzLnxYv5k1h0c-7KHn-8" target="IExzLnxYv5k1h0c-7KHn-1">
          <mxGeometry width="50" height="50" relative="1" as="geometry">
            <mxPoint x="400" y="480" as="sourcePoint" />
            <mxPoint x="450" y="430" as="targetPoint" />
          </mxGeometry>
        </mxCell>
        <mxCell id="IExzLnxYv5k1h0c-7KHn-19" value="client encrypt the following with server&#39;s publickey" style="text;html=1;strokeColor=none;fillColor=none;align=center;verticalAlign=middle;whiteSpace=wrap;rounded=0;" vertex="1" parent="1">
          <mxGeometry x="315" y="490" width="160" height="20" as="geometry" />
        </mxCell>
        <mxCell id="IExzLnxYv5k1h0c-7KHn-20" value="" style="endArrow=classic;html=1;entryX=1;entryY=0.5;entryDx=0;entryDy=0;exitX=0;exitY=0.5;exitDx=0;exitDy=0;" edge="1" parent="1" source="IExzLnxYv5k1h0c-7KHn-9" target="IExzLnxYv5k1h0c-7KHn-10">
          <mxGeometry width="50" height="50" relative="1" as="geometry">
            <mxPoint x="400" y="430" as="sourcePoint" />
            <mxPoint x="450" y="380" as="targetPoint" />
          </mxGeometry>
        </mxCell>
        <mxCell id="IExzLnxYv5k1h0c-7KHn-21" value="server return (Success/Faiiled + reason)" style="text;html=1;strokeColor=none;fillColor=none;align=center;verticalAlign=middle;whiteSpace=wrap;rounded=0;rotation=-10;" vertex="1" parent="1">
          <mxGeometry x="310" y="750" width="150" height="20" as="geometry" />
        </mxCell>
        <mxCell id="IExzLnxYv5k1h0c-7KHn-25" value="server save to database if success" style="rounded=1;whiteSpace=wrap;html=1;align=center;" vertex="1" parent="1">
          <mxGeometry x="900" y="710" width="120" height="60" as="geometry" />
        </mxCell>
      </root>
    </mxGraphModel>
  </diagram>
</mxfile>
